<?xml version="1.0" encoding="utf-8"?>
<!DOCTYPE svg PUBLIC "-//W3C//DTD SVG 1.1//EN" "http://www.w3.org/Graphics/SVG/1.1/DTD/svg11.dtd">
<svg version="1.1" id="图形" xmlns="http://www.w3.org/2000/svg" xmlns:xlink="http://www.w3.org/1999/xlink" x="0px" y="0px" width="1024px" height="1024px" viewBox="0 0 1024 1024" enable-background="new 0 0 1024 1024" xml:space="preserve">
  <path fill="#000000" d="M826.617537 570.320659c-2.913353 2.606361-73.14388 63.830771-228.906433 63.830771-153.12447 0-231.074819-70.315462-234.3187-73.308633-5.247514-4.842285-8.232498-11.659551-8.232498-18.800181l0-39.921221L207.77516 502.121394c-8.231475 0-15.960507-3.961218-20.766976-10.642384-4.807493-6.682189-6.106068-15.269775-3.488451-23.073508l64.957431-193.69856L184.311773 62.281877c-2.341325-7.748475-0.87595-16.148795 3.949962-22.648836 4.825912-6.500041 12.443403-10.331299 20.538779-10.331299l84.958974 0c14.128789 0 25.582655 11.453866 25.582655 25.582655 0 14.129812-11.453866 25.582655-25.582655 25.582655l-50.507324 0 56.559157 187.247638c1.533936 5.075599 1.452071 10.503215-0.234337 15.530718l-56.241932 167.710676 137.40444 0c14.128789 0 25.582655 11.453866 25.582655 25.582655l0 53.082986c8.065699 5.77861 21.951965 14.665001 41.528835 23.473621 54.905494 24.704658 111.798249 29.889751 149.857053 29.889751 70.440305 0 119.748315-13.892405 148.709927-25.547863 17.633612-7.096628 30.058596-14.241352 37.557384-19.136849l0-497.706459c-5.379521-2.163269-13.111622-4.870938-23.544229-7.621585-27.600615-7.2798-78.235852-15.95846-162.724105-15.95846-80.681554 0-131.533732 7.976672-159.987784 14.668071-14.308891 3.365654-24.535813 6.749728-31.399127 9.417487L406.320099 364.788585c0 14.128789-11.453866 25.582655-25.582655 25.582655-14.129812 0-25.582655-11.453866-25.582655-25.582655l0-339.748914c0-8.356318 4.080945-16.185634 10.93198-20.971637 5.599532-3.911076 59.671031-38.219463 231.620241-38.219463 72.232115 0 131.370003 5.938246 175.773306 17.649985 34.278711 9.04091 48.340985 18.654872 51.834552 21.386076 6.201236 4.848425 9.825786 12.282744 9.825786 20.154016L835.140655 551.253394C835.143725 558.532171 832.043107 565.467117 826.617537 570.320659zM647.76715 494.748473c14.129812 0 25.582655 11.452843 25.582655 25.582655 0 14.129812-11.452843 25.582655-25.582655 25.582655l-110.517069 0c-14.129812 0-25.582655-11.452843-25.582655-25.582655 0-14.129812 11.452843-25.582655 25.582655-25.582655L647.76715 494.748473z" transform="translate(0, 812) scale(1, -1)"/>
</svg>
